<svg xmlns="http://www.w3.org/2000/svg" xmlns:xlink="http://www.w3.org/1999/xlink" width="32" height="32" viewBox="0 0 32 32"><defs><linearGradient id="a"><stop offset="0" stop-color="#000092"/><stop offset="1" stop-color="#ff00f3"/></linearGradient><linearGradient id="b" x1="3" x2="25" y1="16" y2="16" gradientUnits="userSpaceOnUse" xlink:href="#a"/></defs><path fill="url(#b)" d="M 5.4492188 3 A 0.50005 0.50005 0 0 0 5.3847656 3.0117188 C 4.0626974 3.0736669 3 4.1631971 3 5.5 L 3 6 L 3 7 L 7 7 L 7 27 L 12.25 27 L 19 27 L 19 28.5 A 0.50005 0.50005 0 0 0 19.777344 28.916016 L 21 28.101562 L 22.222656 28.916016 A 0.50005 0.50005 0 0 0 23 28.5 L 23 27 L 27 27 L 27 5.5332031 A 0.50005 0.50005 0 0 0 27 5.5 C 27 4.1237 25.876351 3 24.5 3 L 5.5 3 A 0.50005 0.50005 0 0 0 5.4492188 3 z M 5.5 4 C 6.3396486 4 7 4.6604 7 5.5 L 7 6 L 4 6 L 4 5.5 C 4 4.6604 4.6603514 4 5.5 4 z M 7.4863281 4 L 24.5 4 C 25.339649 4 26 4.6604 26 5.5 L 26 26 L 23 26 L 23 24.216797 C 23.608806 23.66689 24 22.880701 24 22 C 24 20.3491 22.650932 19 21 19 C 19.349068 19 18 20.3491 18 22 C 18 22.880701 18.391194 23.66689 19 24.216797 L 19 26 L 12.25 26 L 8 26 L 8 6 L 8 5.5 C 8 4.9358068 7.8039807 4.4192877 7.4863281 4 z M 13 6 L 13 7 L 21 7 L 21 6 L 13 6 z M 10 9 L 10 10 L 24 10 L 24 9 L 10 9 z M 10 11 L 10 12 L 24 12 L 24 11 L 10 11 z M 10 13 L 10 14 L 24 14 L 24 13 L 10 13 z M 10 15 L 10 16 L 24 16 L 24 15 L 10 15 z M 10 17 L 10 18 L 24 18 L 24 17 L 10 17 z M 10 19 L 10 20 L 17 20 L 17 19 L 10 19 z M 21 20 C 22.110492 20 23 20.8895 23 22 C 23 23.1105 22.110492 24 21 24 C 19.889508 24 19 23.1105 19 22 C 19 20.8895 19.889508 20 21 20 z M 20 24.814453 C 20.314205 24.926795 20.648263 25 21 25 C 21.351737 25 21.685795 24.926795 22 24.814453 L 22 27.566406 L 21.277344 27.083984 A 0.50005 0.50005 0 0 0 20.722656 27.083984 L 20 27.566406 L 20 24.814453 z " color="#000" font-family="sans-serif" font-weight="400" overflow="visible" style="line-height:normal;text-indent:0;text-align:start;text-decoration-line:none;text-decoration-style:solid;text-decoration-color:#000;text-transform:none;block-progression:tb;isolation:auto;mix-blend-mode:normal"/></svg>