<svg xmlns="http://www.w3.org/2000/svg" xmlns:xlink="http://www.w3.org/1999/xlink" width="32" height="32" viewBox="0 0 32 32"><defs><linearGradient id="a"><stop offset="0" stop-color="#f0f"/><stop offset="1" stop-color="#00f"/></linearGradient><linearGradient id="d" x1="2.05" x2="30" y1="2.025" y2="29.975" gradientUnits="userSpaceOnUse" xlink:href="#a"/><linearGradient id="c" x1="2.05" x2="30" y1="82.05" y2="110" gradientUnits="userSpaceOnUse" xlink:href="#a"/><linearGradient id="b" x1="2.05" x2="30" y1="2.025" y2="29.975" gradientUnits="userSpaceOnUse" xlink:href="#a"/></defs><g transform="translate(0 .024)"><path style="line-height:normal;font-variant-ligatures:normal;font-variant-position:normal;font-variant-caps:normal;font-variant-numeric:normal;font-variant-alternates:normal;font-variant-east-asian:normal;font-feature-settings:normal;font-variation-settings:normal;text-indent:0;text-align:start;text-decoration-line:none;text-decoration-style:solid;text-decoration-color:#000;text-transform:none;text-orientation:mixed;white-space:normal;shape-padding:0;shape-margin:0;inline-size:0;isolation:auto;mix-blend-mode:normal;solid-color:#000;solid-opacity:1" fill="url(#b)" d="M 6,2 C 3.8012973,2 2,3.8012973 2,6 v 13 c 0,2.198703 1.8012973,4 4,4 H 8 A 1,1 0 0 0 9,22 1,1 0 0 0 8,21 H 6 C 4.8747029,21 4,20.125297 4,19 V 6 C 4,4.8747029 4.8747029,4 6,4 h 20 c 1.125297,0 2,0.8747029 2,2 v 13 c 0,1.125297 -0.874703,2 -2,2 h -2 a 1,1 0 0 0 -1,1 1,1 0 0 0 1,1 h 2 c 2.198703,0 4,-1.801297 4,-4 V 6 C 30,3.8012973 28.198703,2 26,2 Z" color="#000" enable-background="accumulate" font-family="sans-serif" font-weight="400" overflow="visible"/><path style="line-height:normal;font-variant-ligatures:normal;font-variant-position:normal;font-variant-caps:normal;font-variant-numeric:normal;font-variant-alternates:normal;font-variant-east-asian:normal;font-feature-settings:normal;font-variation-settings:normal;text-indent:0;text-align:start;text-decoration-line:none;text-decoration-style:solid;text-decoration-color:#000;text-transform:none;text-orientation:mixed;white-space:normal;shape-padding:0;shape-margin:0;inline-size:0;isolation:auto;mix-blend-mode:normal;solid-color:#000;solid-opacity:1" fill="url(#c)" d="m 16,87.025391 c -4.406433,0 -8,3.593567 -8,8 0,2.516046 1.1744143,4.764084 3,6.232419 v 7.66797 c 1.32e-4,0.82038 0.933536,1.29166 1.59375,0.80469 l 3.400391,-2.50977 3.40625,2.55469 c 0.659495,0.49391 1.599846,0.0232 1.599609,-0.80078 v -7.7168 c 1.825586,-1.468335 3,-3.716373 3,-6.232419 0,-4.406433 -3.593567,-8 -8,-8 z m 0,2 c 3.325553,0 6,2.674447 6,6 0,3.325553 -2.674447,5.999999 -6,5.999999 -3.325553,0 -6,-2.674446 -6,-5.999999 0,-3.325553 2.674447,-6 6,-6 z m -3,13.410159 c 0.927559,0.37752 1.939515,0.58984 3,0.58984 1.060485,0 2.072441,-0.21232 3,-0.58984 v 4.54101 l -2.400391,-1.80078 c -0.352903,-0.26508 -0.837852,-0.26744 -1.193359,-0.006 L 13,106.94531 Z" color="#000" enable-background="accumulate" font-family="sans-serif" font-weight="400" overflow="visible" transform="translate(0 -80.025)"/><path style="line-height:normal;font-variant-ligatures:normal;font-variant-position:normal;font-variant-caps:normal;font-variant-numeric:normal;font-variant-alternates:normal;font-variant-east-asian:normal;font-feature-settings:normal;font-variation-settings:normal;text-indent:0;text-align:start;text-decoration-line:none;text-decoration-style:solid;text-decoration-color:#000;text-transform:none;text-orientation:mixed;white-space:normal;shape-padding:0;shape-margin:0;inline-size:0;isolation:auto;mix-blend-mode:normal;solid-color:#000;solid-opacity:1" fill="url(#d)" d="m 15.544922,12.279638 -0.716797,1.455078 -1.605469,0.236328 c -0.409204,0.06118 -0.57156,0.563223 -0.27539,0.851562 l 1.164062,1.128906 -0.271484,1.597657 c -0.07029,0.409179 0.361241,0.720392 0.728515,0.52539 l 1.435547,-0.755859 1.4375,0.75 c 0.367655,0.193318 0.797623,-0.118755 0.726563,-0.527344 l -0.277344,-1.595703 1.160156,-1.134765 c 0.29666,-0.289636 0.131564,-0.793004 -0.279297,-0.851563 l -1.607422,-0.230469 -0.720703,-1.451172 c -0.07364,-0.148549 -0.216311,-0.250981 -0.425689,-0.265648 -0.209379,-0.01467 -0.38738,0.09411 -0.472748,0.267602 z" color="#000" enable-background="accumulate" font-family="sans-serif" font-weight="400" overflow="visible"/></g></svg>