<svg id="Layer_1" data-name="Layer 1" xmlns="http://www.w3.org/2000/svg" viewBox="0 0 16 16"><defs><style>.cls-1{fill:#8a2be2;}.cls-2{fill:#fff;}</style></defs><title>favicon</title><rect class="cls-1" width="16" height="16" rx="8"/><path class="cls-2" d="M10.65,5.26a2.71,2.71,0,0,1,.88.13,1.18,1.18,0,0,1,.61.46,1.64,1.64,0,0,1,.23.93v4H10.75V6.93a1.27,1.27,0,0,0-.1-.6q-.09-.18-.48-.18a1.76,1.76,0,0,0-.63.12,2,2,0,0,0-.64.41v4.08H7.43V6.93a1.27,1.27,0,0,0-.1-.6q-.09-.18-.48-.18a1.76,1.76,0,0,0-.63.12,2,2,0,0,0-.64.41v4.08H4V5.4H5.33L5.45,6a3.43,3.43,0,0,1,.8-.52,2.5,2.5,0,0,1,1-.2,2.52,2.52,0,0,1,.89.15,1,1,0,0,1,.58.53,3.19,3.19,0,0,1,.82-.49A2.69,2.69,0,0,1,10.65,5.26Z" transform="translate(0 0)"/></svg>